<svg width="430" height="39" viewBox="0 0 430 39" fill="none" xmlns="http://www.w3.org/2000/svg">
<path d="M25.7699 10.7244H20.4574C20.3059 9.85322 20.0265 9.08144 19.6193 8.40909C19.2121 7.72727 18.7055 7.14962 18.0994 6.67614C17.4934 6.20265 16.8021 5.84754 16.0256 5.6108C15.2585 5.36458 14.4299 5.24148 13.5398 5.24148C11.9583 5.24148 10.5568 5.6392 9.33523 6.43466C8.11364 7.22064 7.1572 8.37595 6.46591 9.90057C5.77462 11.4157 5.42898 13.267 5.42898 15.4545C5.42898 17.6799 5.77462 19.5549 6.46591 21.0795C7.16667 22.5947 8.12311 23.7405 9.33523 24.517C10.5568 25.2841 11.9536 25.6676 13.5256 25.6676C14.3968 25.6676 15.2112 25.554 15.9688 25.3267C16.7358 25.09 17.4223 24.7443 18.0284 24.2898C18.6439 23.8352 19.16 23.2765 19.5767 22.6136C20.0028 21.9508 20.2964 21.1932 20.4574 20.3409L25.7699 20.3693C25.571 21.7519 25.1402 23.0492 24.4773 24.2614C23.8239 25.4735 22.9669 26.5436 21.9062 27.4716C20.8456 28.3902 19.6051 29.1098 18.1847 29.6307C16.7642 30.142 15.1875 30.3977 13.4545 30.3977C10.8977 30.3977 8.61553 29.8059 6.60795 28.6222C4.60038 27.4384 3.01894 25.7292 1.86364 23.4943C0.708333 21.2595 0.130682 18.5795 0.130682 15.4545C0.130682 12.3201 0.713068 9.64015 1.87784 7.41477C3.04261 5.17992 4.62879 3.47064 6.63636 2.28693C8.64394 1.10322 10.9167 0.511363 13.4545 0.511363C15.0739 0.511363 16.5795 0.738635 17.9716 1.19318C19.3636 1.64773 20.6042 2.31534 21.6932 3.19602C22.7822 4.06723 23.6771 5.13731 24.3778 6.40625C25.0881 7.66572 25.5521 9.10511 25.7699 10.7244ZM35.5107 17.2159V30H30.3686V0.90909H35.397V11.8892H35.6527C36.1641 10.6581 36.9548 9.6875 38.0249 8.97727C39.1044 8.25758 40.4775 7.89773 42.1442 7.89773C43.6593 7.89773 44.9804 8.21496 46.1072 8.84943C47.2341 9.4839 48.1054 10.4119 48.7209 11.6335C49.3459 12.8551 49.6584 14.3466 49.6584 16.108V30H44.5163V16.9034C44.5163 15.4356 44.1375 14.2945 43.38 13.4801C42.6319 12.6562 41.5807 12.2443 40.2266 12.2443C39.3175 12.2443 38.5031 12.4432 37.7834 12.8409C37.0732 13.2292 36.5144 13.7926 36.1072 14.5312C35.7095 15.2699 35.5107 16.1648 35.5107 17.2159ZM61.1783 30.4403C59.7957 30.4403 58.5504 30.1941 57.4425 29.7017C56.344 29.1998 55.4728 28.4612 54.8288 27.4858C54.1944 26.5104 53.8771 25.3078 53.8771 23.8778C53.8771 22.6468 54.1044 21.6288 54.5589 20.8239C55.0135 20.0189 55.6338 19.375 56.4197 18.892C57.2057 18.4091 58.0911 18.0445 59.076 17.7983C60.0703 17.5426 61.0978 17.358 62.1584 17.2443C63.4368 17.1117 64.4737 16.9934 65.2692 16.8892C66.0646 16.7756 66.6423 16.6051 67.0021 16.3778C67.3714 16.1411 67.5561 15.7765 67.5561 15.2841V15.1989C67.5561 14.1288 67.2389 13.3002 66.6044 12.7131C65.9699 12.1259 65.0561 11.8324 63.8629 11.8324C62.6035 11.8324 61.6044 12.107 60.8658 12.6562C60.1366 13.2055 59.6442 13.8542 59.3885 14.6023L54.5874 13.9205C54.9661 12.5947 55.5911 11.4867 56.4624 10.5966C57.3336 9.69697 58.3989 9.02462 59.6584 8.57955C60.9179 8.125 62.3099 7.89773 63.8345 7.89773C64.8857 7.89773 65.9321 8.02083 66.9737 8.26705C68.0154 8.51326 68.9671 8.92045 69.8288 9.48864C70.6906 10.0473 71.3819 10.8097 71.9027 11.7756C72.433 12.7415 72.6982 13.9489 72.6982 15.3977V30H67.755V27.0028H67.5845C67.272 27.6089 66.8317 28.1771 66.2635 28.7074C65.7048 29.2282 64.9993 29.6496 64.147 29.9716C63.3042 30.2841 62.3146 30.4403 61.1783 30.4403ZM62.5135 26.6619C63.5457 26.6619 64.4406 26.4583 65.1982 26.0511C65.9557 25.6345 66.5381 25.0852 66.9453 24.4034C67.362 23.7216 67.5703 22.9782 67.5703 22.1733V19.6023C67.4093 19.7348 67.1347 19.858 66.7464 19.9716C66.3677 20.0852 65.9415 20.1847 65.468 20.2699C64.9946 20.3551 64.5258 20.4309 64.0618 20.4972C63.5978 20.5634 63.1953 20.6203 62.8544 20.6676C62.0874 20.7718 61.4008 20.9422 60.7947 21.179C60.1887 21.4157 59.7105 21.7472 59.3601 22.1733C59.0097 22.59 58.8345 23.1297 58.8345 23.7926C58.8345 24.7396 59.1802 25.4545 59.8714 25.9375C60.5627 26.4205 61.4434 26.6619 62.5135 26.6619ZM83.0107 0.90909V30H77.8686V0.90909H83.0107ZM93.4403 0.90909V30H88.2983V0.90909H93.4403ZM108.387 30.4261C106.2 30.4261 104.31 29.9716 102.719 29.0625C101.138 28.1439 99.9212 26.8466 99.0689 25.1705C98.2166 23.4848 97.7905 21.5009 97.7905 19.2188C97.7905 16.9744 98.2166 15.0047 99.0689 13.3097C99.9306 11.6051 101.133 10.2794 102.677 9.33239C104.22 8.37595 106.034 7.89773 108.117 7.89773C109.462 7.89773 110.731 8.11553 111.924 8.55114C113.127 8.97727 114.187 9.64015 115.106 10.5398C116.034 11.4394 116.763 12.5852 117.293 13.9773C117.824 15.3598 118.089 17.0076 118.089 18.9205V20.4972H100.205V17.0312H113.16C113.15 16.0464 112.937 15.1705 112.521 14.4034C112.104 13.6269 111.522 13.0161 110.773 12.571C110.035 12.1259 109.173 11.9034 108.188 11.9034C107.137 11.9034 106.214 12.1591 105.418 12.6705C104.623 13.1723 104.003 13.8352 103.558 14.6591C103.122 15.4735 102.899 16.3684 102.89 17.3438V20.3693C102.89 21.6383 103.122 22.7273 103.586 23.6364C104.05 24.536 104.699 25.2273 105.532 25.7102C106.365 26.1837 107.341 26.4205 108.458 26.4205C109.206 26.4205 109.883 26.3163 110.489 26.108C111.095 25.8902 111.621 25.5729 112.066 25.1562C112.511 24.7396 112.847 24.2235 113.075 23.608L117.876 24.1477C117.573 25.4167 116.995 26.5246 116.143 27.4716C115.3 28.4091 114.22 29.1383 112.904 29.6591C111.588 30.1705 110.082 30.4261 108.387 30.4261ZM127.581 17.2159V30H122.439V8.18182H127.354V11.8892H127.609C128.111 10.6676 128.911 9.69697 130.01 8.97727C131.118 8.25758 132.486 7.89773 134.115 7.89773C135.621 7.89773 136.932 8.2197 138.05 8.86364C139.177 9.50758 140.048 10.4403 140.663 11.6619C141.288 12.8835 141.596 14.3655 141.587 16.108V30H136.445V16.9034C136.445 15.4451 136.066 14.304 135.308 13.4801C134.56 12.6562 133.523 12.2443 132.197 12.2443C131.298 12.2443 130.498 12.4432 129.797 12.8409C129.106 13.2292 128.561 13.7926 128.163 14.5312C127.775 15.2699 127.581 16.1648 127.581 17.2159ZM156.303 38.6364C154.456 38.6364 152.87 38.3854 151.544 37.8835C150.218 37.3911 149.153 36.7282 148.348 35.8949C147.543 35.0616 146.984 34.1383 146.672 33.125L151.303 32.0028C151.511 32.429 151.814 32.8504 152.212 33.267C152.609 33.6932 153.144 34.0436 153.817 34.3182C154.499 34.6023 155.356 34.7443 156.388 34.7443C157.846 34.7443 159.054 34.3892 160.01 33.679C160.966 32.9782 161.445 31.8229 161.445 30.2131V26.0795H161.189C160.924 26.6098 160.536 27.1544 160.024 27.7131C159.522 28.2718 158.855 28.7405 158.021 29.1193C157.197 29.4981 156.161 29.6875 154.911 29.6875C153.234 29.6875 151.714 29.2945 150.351 28.5085C148.997 27.7131 147.917 26.5294 147.112 24.9574C146.317 23.3759 145.919 21.3968 145.919 19.0199C145.919 16.6241 146.317 14.6023 147.112 12.9545C147.917 11.2973 149.001 10.0426 150.365 9.19034C151.729 8.3286 153.249 7.89773 154.925 7.89773C156.203 7.89773 157.254 8.11553 158.078 8.55114C158.911 8.97727 159.574 9.49337 160.067 10.0994C160.559 10.696 160.933 11.2595 161.189 11.7898H161.473V8.18182H166.544V30.3551C166.544 32.2206 166.099 33.7642 165.209 34.9858C164.319 36.2074 163.102 37.1212 161.558 37.7273C160.015 38.3333 158.263 38.6364 156.303 38.6364ZM156.345 25.6534C157.434 25.6534 158.362 25.3883 159.129 24.858C159.896 24.3277 160.479 23.5653 160.876 22.571C161.274 21.5767 161.473 20.3835 161.473 18.9915C161.473 17.6184 161.274 16.4157 160.876 15.3835C160.488 14.3513 159.911 13.5511 159.143 12.983C158.386 12.4053 157.453 12.1165 156.345 12.1165C155.199 12.1165 154.243 12.4148 153.476 13.0114C152.709 13.608 152.131 14.4271 151.743 15.4688C151.355 16.5009 151.161 17.6752 151.161 18.9915C151.161 20.3267 151.355 21.4962 151.743 22.5C152.141 23.4943 152.723 24.2708 153.49 24.8295C154.267 25.3788 155.218 25.6534 156.345 25.6534ZM181.473 30.4261C179.286 30.4261 177.396 29.9716 175.805 29.0625C174.224 28.1439 173.007 26.8466 172.155 25.1705C171.303 23.4848 170.876 21.5009 170.876 19.2188C170.876 16.9744 171.303 15.0047 172.155 13.3097C173.017 11.6051 174.219 10.2794 175.763 9.33239C177.306 8.37595 179.12 7.89773 181.203 7.89773C182.548 7.89773 183.817 8.11553 185.01 8.55114C186.213 8.97727 187.273 9.64015 188.192 10.5398C189.12 11.4394 189.849 12.5852 190.379 13.9773C190.91 15.3598 191.175 17.0076 191.175 18.9205V20.4972H173.291V17.0312H186.246C186.236 16.0464 186.023 15.1705 185.607 14.4034C185.19 13.6269 184.607 13.0161 183.859 12.571C183.121 12.1259 182.259 11.9034 181.274 11.9034C180.223 11.9034 179.3 12.1591 178.504 12.6705C177.709 13.1723 177.089 13.8352 176.643 14.6591C176.208 15.4735 175.985 16.3684 175.976 17.3438V20.3693C175.976 21.6383 176.208 22.7273 176.672 23.6364C177.136 24.536 177.785 25.2273 178.618 25.7102C179.451 26.1837 180.427 26.4205 181.544 26.4205C182.292 26.4205 182.969 26.3163 183.575 26.108C184.181 25.8902 184.707 25.5729 185.152 25.1562C185.597 24.7396 185.933 24.2235 186.161 23.608L190.962 24.1477C190.659 25.4167 190.081 26.5246 189.229 27.4716C188.386 28.4091 187.306 29.1383 185.99 29.6591C184.674 30.1705 183.168 30.4261 181.473 30.4261ZM210.944 0.90909V30H205.674V0.90909H210.944ZM251.473 10.7244H246.161C246.009 9.85322 245.73 9.08144 245.322 8.40909C244.915 7.72727 244.409 7.14962 243.803 6.67614C243.196 6.20265 242.505 5.84754 241.729 5.6108C240.962 5.36458 240.133 5.24148 239.243 5.24148C237.661 5.24148 236.26 5.6392 235.038 6.43466C233.817 7.22064 232.86 8.37595 232.169 9.90057C231.478 11.4157 231.132 13.267 231.132 15.4545C231.132 17.6799 231.478 19.5549 232.169 21.0795C232.87 22.5947 233.826 23.7405 235.038 24.517C236.26 25.2841 237.657 25.6676 239.229 25.6676C240.1 25.6676 240.914 25.554 241.672 25.3267C242.439 25.09 243.125 24.7443 243.732 24.2898C244.347 23.8352 244.863 23.2765 245.28 22.6136C245.706 21.9508 246 21.1932 246.161 20.3409L251.473 20.3693C251.274 21.7519 250.843 23.0492 250.18 24.2614C249.527 25.4735 248.67 26.5436 247.609 27.4716C246.549 28.3902 245.308 29.1098 243.888 29.6307C242.467 30.142 240.891 30.3977 239.158 30.3977C236.601 30.3977 234.319 29.8059 232.311 28.6222C230.304 27.4384 228.722 25.7292 227.567 23.4943C226.411 21.2595 225.834 18.5795 225.834 15.4545C225.834 12.3201 226.416 9.64015 227.581 7.41477C228.746 5.17992 230.332 3.47064 232.339 2.28693C234.347 1.10322 236.62 0.511363 239.158 0.511363C240.777 0.511363 242.283 0.738635 243.675 1.19318C245.067 1.64773 246.307 2.31534 247.396 3.19602C248.485 4.06723 249.38 5.13731 250.081 6.40625C250.791 7.66572 251.255 9.10511 251.473 10.7244ZM261.214 17.2159V30H256.072V0.90909H261.1V11.8892H261.356C261.867 10.6581 262.658 9.6875 263.728 8.97727C264.808 8.25758 266.181 7.89773 267.847 7.89773C269.362 7.89773 270.683 8.21496 271.81 8.84943C272.937 9.4839 273.808 10.4119 274.424 11.6335C275.049 12.8551 275.362 14.3466 275.362 16.108V30H270.219V16.9034C270.219 15.4356 269.841 14.2945 269.083 13.4801C268.335 12.6562 267.284 12.2443 265.93 12.2443C265.021 12.2443 264.206 12.4432 263.487 12.8409C262.776 13.2292 262.218 13.7926 261.81 14.5312C261.413 15.2699 261.214 16.1648 261.214 17.2159ZM286.881 30.4403C285.499 30.4403 284.254 30.1941 283.146 29.7017C282.047 29.1998 281.176 28.4612 280.532 27.4858C279.897 26.5104 279.58 25.3078 279.58 23.8778C279.58 22.6468 279.808 21.6288 280.262 20.8239C280.717 20.0189 281.337 19.375 282.123 18.892C282.909 18.4091 283.794 18.0445 284.779 17.7983C285.773 17.5426 286.801 17.358 287.862 17.2443C289.14 17.1117 290.177 16.9934 290.972 16.8892C291.768 16.7756 292.345 16.6051 292.705 16.3778C293.075 16.1411 293.259 15.7765 293.259 15.2841V15.1989C293.259 14.1288 292.942 13.3002 292.308 12.7131C291.673 12.1259 290.759 11.8324 289.566 11.8324C288.307 11.8324 287.308 12.107 286.569 12.6562C285.84 13.2055 285.347 13.8542 285.092 14.6023L280.29 13.9205C280.669 12.5947 281.294 11.4867 282.165 10.5966C283.037 9.69697 284.102 9.02462 285.362 8.57955C286.621 8.125 288.013 7.89773 289.538 7.89773C290.589 7.89773 291.635 8.02083 292.677 8.26705C293.719 8.51326 294.67 8.92045 295.532 9.48864C296.394 10.0473 297.085 10.8097 297.606 11.7756C298.136 12.7415 298.401 13.9489 298.401 15.3977V30H293.458V27.0028H293.288C292.975 27.6089 292.535 28.1771 291.967 28.7074C291.408 29.2282 290.702 29.6496 289.85 29.9716C289.007 30.2841 288.018 30.4403 286.881 30.4403ZM288.217 26.6619C289.249 26.6619 290.144 26.4583 290.901 26.0511C291.659 25.6345 292.241 25.0852 292.648 24.4034C293.065 23.7216 293.273 22.9782 293.273 22.1733V19.6023C293.112 19.7348 292.838 19.858 292.45 19.9716C292.071 20.0852 291.645 20.1847 291.171 20.2699C290.698 20.3551 290.229 20.4309 289.765 20.4972C289.301 20.5634 288.898 20.6203 288.558 20.6676C287.79 20.7718 287.104 20.9422 286.498 21.179C285.892 21.4157 285.414 21.7472 285.063 22.1733C284.713 22.59 284.538 23.1297 284.538 23.7926C284.538 24.7396 284.883 25.4545 285.575 25.9375C286.266 26.4205 287.147 26.6619 288.217 26.6619ZM303.572 38.1818V8.18182H308.629V11.7898H308.927C309.192 11.2595 309.566 10.696 310.049 10.0994C310.532 9.49337 311.185 8.97727 312.009 8.55114C312.833 8.11553 313.884 7.89773 315.163 7.89773C316.848 7.89773 318.368 8.3286 319.722 9.19034C321.086 10.0426 322.165 11.3068 322.961 12.983C323.766 14.6496 324.168 16.6951 324.168 19.1193C324.168 21.5152 323.775 23.5511 322.989 25.2273C322.203 26.9034 321.133 28.1818 319.779 29.0625C318.425 29.9432 316.891 30.3835 315.177 30.3835C313.927 30.3835 312.89 30.1752 312.066 29.7585C311.242 29.3419 310.579 28.84 310.077 28.2528C309.585 27.6562 309.201 27.0928 308.927 26.5625H308.714V38.1818H303.572ZM308.614 19.0909C308.614 20.5019 308.813 21.7377 309.211 22.7983C309.618 23.8589 310.201 24.6875 310.958 25.2841C311.725 25.8712 312.653 26.1648 313.742 26.1648C314.879 26.1648 315.83 25.8617 316.597 25.2557C317.364 24.6402 317.942 23.8021 318.33 22.7415C318.728 21.6714 318.927 20.4545 318.927 19.0909C318.927 17.7367 318.733 16.5341 318.344 15.483C317.956 14.4318 317.379 13.608 316.612 13.0114C315.844 12.4148 314.888 12.1165 313.742 12.1165C312.644 12.1165 311.711 12.4053 310.944 12.983C310.177 13.5606 309.594 14.3703 309.197 15.4119C308.808 16.4536 308.614 17.6799 308.614 19.0909ZM339.467 8.18182V12.1591H326.924V8.18182H339.467ZM330.021 2.95455H335.163V23.4375C335.163 24.1288 335.267 24.6591 335.475 25.0284C335.693 25.3883 335.977 25.6345 336.327 25.767C336.678 25.8996 337.066 25.9659 337.492 25.9659C337.814 25.9659 338.108 25.9422 338.373 25.8949C338.647 25.8475 338.856 25.8049 338.998 25.767L339.864 29.7869C339.59 29.8816 339.197 29.9858 338.685 30.0994C338.183 30.2131 337.568 30.2794 336.839 30.2983C335.551 30.3362 334.391 30.142 333.359 29.7159C332.326 29.2803 331.507 28.608 330.901 27.6989C330.305 26.7898 330.011 25.6534 330.021 24.2898V2.95455ZM353.192 30.4261C351.004 30.4261 349.115 29.9716 347.524 29.0625C345.943 28.1439 344.726 26.8466 343.874 25.1705C343.021 23.4848 342.595 21.5009 342.595 19.2188C342.595 16.9744 343.021 15.0047 343.874 13.3097C344.735 11.6051 345.938 10.2794 347.482 9.33239C349.025 8.37595 350.839 7.89773 352.922 7.89773C354.267 7.89773 355.536 8.11553 356.729 8.55114C357.931 8.97727 358.992 9.64015 359.911 10.5398C360.839 11.4394 361.568 12.5852 362.098 13.9773C362.628 15.3598 362.893 17.0076 362.893 18.9205V20.4972H345.01V17.0312H357.964C357.955 16.0464 357.742 15.1705 357.325 14.4034C356.909 13.6269 356.326 13.0161 355.578 12.571C354.839 12.1259 353.978 11.9034 352.993 11.9034C351.942 11.9034 351.018 12.1591 350.223 12.6705C349.428 13.1723 348.807 13.8352 348.362 14.6591C347.927 15.4735 347.704 16.3684 347.695 17.3438V20.3693C347.695 21.6383 347.927 22.7273 348.391 23.6364C348.855 24.536 349.503 25.2273 350.337 25.7102C351.17 26.1837 352.145 26.4205 353.263 26.4205C354.011 26.4205 354.688 26.3163 355.294 26.108C355.9 25.8902 356.426 25.5729 356.871 25.1562C357.316 24.7396 357.652 24.2235 357.879 23.608L362.68 24.1477C362.377 25.4167 361.8 26.5246 360.947 27.4716C360.105 28.4091 359.025 29.1383 357.709 29.6591C356.393 30.1705 354.887 30.4261 353.192 30.4261ZM367.244 30V8.18182H372.229V11.8182H372.457C372.854 10.5587 373.536 9.58807 374.502 8.90625C375.478 8.21496 376.59 7.86932 377.84 7.86932C378.124 7.86932 378.442 7.88352 378.792 7.91193C379.152 7.93087 379.45 7.96401 379.687 8.01136V12.7415C379.469 12.6657 379.123 12.5994 378.65 12.5426C378.186 12.4763 377.736 12.4432 377.3 12.4432C376.363 12.4432 375.52 12.6468 374.772 13.054C374.033 13.4517 373.451 14.0057 373.025 14.7159C372.599 15.4261 372.386 16.2453 372.386 17.1733V30H367.244ZM398.522 0.90909V30H393.252V0.90909H398.522ZM408.121 0.90909L415.692 23.8068H415.99L423.547 0.90909H429.342L419.087 30H412.581L402.339 0.90909H408.121Z" fill="#A8A8B3"/>
</svg>
